<?xml version="1.0" encoding="UTF-8"?>
<svg id="Layer_2" data-name="Layer 2" xmlns="http://www.w3.org/2000/svg" width="311.56" height="34.21" viewBox="0 0 311.56 34.21">
  <defs>
    <style>
      .cls-1, .cls-2 {
        fill: #212221;
      }

      .cls-2 {
        fill-rule: evenodd;
      }
    </style>
  </defs>
  <g id="Layer_1-2" data-name="Layer 1">
    <g>
      <g id="Layer_2-2" data-name="Layer 2">
        <g id="uuid-e914907e-3011-456d-b58c-038e2be6ae11" data-name="Layer 1-2">
          <path class="cls-1" d="M42.32,5.47h8.72c5.34,0,8.2,3,8.2,7.44,0,3.16-1.7,5.03-4.43,6.13l5.29,9.7h-4.7l-5.21-9.7h-3.65v9.7h-4.21V5.47ZM50.42,15.55c3.13,0,4.52-.88,4.52-3.27,0-2.02-1.41-3.27-4.55-3.27h-3.85v6.54h3.89Z"/>
          <path class="cls-1" d="M77.71,19.74c0-5.33,3.23-9.02,8.34-9.02,4.26,0,7.21,2.49,7.5,6.26h-3.93c-.32-1.68-1.53-2.95-3.51-2.95-2.53,0-4.23,2.11-4.23,5.63s1.66,5.71,4.23,5.71c1.81,0,3.16-1.08,3.51-2.95h3.93c-.3,3.7-3.09,6.3-7.48,6.3-5.21.01-8.36-3.7-8.36-8.98Z"/>
          <path class="cls-1" d="M94.58,19.74c0-5.41,3.25-9.02,8.36-9.02s8.36,3.61,8.36,9.02-3.25,9-8.36,9-8.36-3.6-8.36-9ZM107.13,19.74c0-3.19-1.39-5.75-4.17-5.75s-4.22,2.55-4.22,5.75,1.39,5.72,4.22,5.72,4.17-2.54,4.17-5.73h0Z"/>
          <path class="cls-1" d="M112.48,11.29h3.99v2.91h.18c.55-1.91,2.32-3.21,4.3-3.16.49,0,.99.04,1.48.11v3.78c-.62-.16-1.26-.23-1.91-.24-2.26,0-3.93,1.57-3.93,3.78v10.26h-4.11V11.29Z"/>
          <path class="cls-1" d="M122.83,20.04c0-5.82,3.17-8.97,7.2-8.97,3.08,0,4.36,1.85,4.99,3.13h.19V5.5h4.12v23.24h-4.06v-2.75h-.25c-.65,1.27-1.99,2.75-4.99,2.75-4.11,0-7.2-2.95-7.2-8.7ZM135.27,20.01c0-3.39-1.46-5.56-4.1-5.56s-4.15,2.33-4.15,5.56,1.43,5.66,4.15,5.66,4.1-2.27,4.1-5.66h0Z"/>
          <path class="cls-1" d="M158.76,20.04c0-5.82,3.17-8.97,7.2-8.97,3.08,0,4.36,1.85,4.99,3.13h.17V5.5h4.12v23.24h-4.04v-2.75h-.25c-.65,1.27-2,2.73-5,2.73-4.12,0-7.19-2.94-7.19-8.69ZM171.19,20.01c0-3.39-1.46-5.56-4.1-5.56s-4.15,2.33-4.15,5.56,1.43,5.66,4.15,5.66,4.1-2.27,4.1-5.66h0Z"/>
          <path class="cls-1" d="M184.56,5.47h14.91v3.53h-10.69v6.51h9.67v3.53h-9.67v9.7h-4.21V5.47Z"/>
          <path class="cls-1" d="M211.54,11.29h4.11v17.45h-3.98v-3.1h-.18c-.8,1.95-2.64,3.1-5.25,3.1-3.43,0-5.81-2.15-5.81-6.34v-11.12h4.11v10.49c0,2.21,1.32,3.61,3.29,3.61,1.82,0,3.72-1.32,3.72-3.98v-10.11Z"/>
          <path class="cls-1" d="M226.99,14.47h-3.44v9.04c0,1.66.83,2.02,1.86,2.02.4,0,.81-.07,1.2-.17l.7,3.23c-.79.26-1.61.39-2.43.41-3.09.09-5.47-1.52-5.45-4.8v-9.72h-2.47v-3.18h2.47v-4.17h4.12v4.17h3.44v3.18Z"/>
          <path class="cls-1" d="M239.96,11.29h4.11v17.45h-3.99v-3.1h-.18c-.8,1.95-2.63,3.1-5.25,3.1-3.43,0-5.82-2.15-5.82-6.34v-11.12h4.11v10.49c0,2.21,1.32,3.61,3.29,3.61,1.82,0,3.72-1.32,3.72-3.98v-10.11Z"/>
          <path class="cls-1" d="M246.69,11.29h3.99v2.91h.18c.55-1.91,2.32-3.21,4.31-3.16.49,0,.99.04,1.48.11v3.78c-.62-.16-1.26-.23-1.91-.24-2.26,0-3.93,1.57-3.93,3.78v10.26h-4.12V11.29Z"/>
          <path class="cls-1" d="M273,9c0-2.14,1.74-3.87,3.87-3.86,2.14,0,3.87,1.74,3.86,3.87,0,2.14-1.73,3.86-3.87,3.86-2.14,0-3.87-1.73-3.87-3.87h0ZM280.02,9c0-1.74-1.41-3.15-3.15-3.15s-3.15,1.41-3.15,3.15,1.41,3.15,3.15,3.15h0c1.74,0,3.15-1.4,3.15-3.14h0ZM275.56,7.17h1.71c.6,0,1.1.47,1.11,1.08,0,.01,0,.03,0,.04.01.44-.23.84-.62,1.04l.76,1.42h-.7l-.67-1.28h-.98v1.28h-.63v-3.58ZM277.07,8.97c.35,0,.64-.28.64-.63,0-.02,0-.04,0-.06.03-.32-.21-.6-.54-.63-.03,0-.06,0-.09,0h-.9v1.31h.89Z"/>
          <path class="cls-1" d="M256.65,20.12c0-5.39,3.26-9.05,8.26-9.05,4.29,0,7.97,2.69,7.97,8.81v1.26h-12.16c.03,2.99,1.79,4.4,4.45,4.4,1.77,0,3.13-.43,3.69-1.91h4.01c-.73,3.03-3.38,5.11-7.76,5.11-5.25,0-8.47-3.15-8.47-8.62ZM268.95,18.38c-.02-2.37-1.61-4.1-3.98-4.1s-4.1,1.88-4.23,4.1h8.2Z"/>
          <path class="cls-1" d="M141.09,20.12c0-5.39,3.26-9.05,8.26-9.05,4.3,0,7.98,2.69,7.98,8.81v1.26h-12.16c.03,2.99,1.8,4.4,4.45,4.4,1.77,0,3.13-.43,3.69-1.91h4.01c-.73,3.03-3.38,5.11-7.76,5.11-5.25,0-8.47-3.15-8.47-8.62ZM153.37,18.38c-.02-2.37-1.61-4.1-3.98-4.1s-4.1,1.88-4.23,4.1h8.2Z"/>
          <path class="cls-1" d="M60.37,20.12c0-5.39,3.26-9.05,8.26-9.05,4.3,0,7.98,2.69,7.98,8.81v1.26h-12.16c.03,2.99,1.8,4.4,4.46,4.4,1.77,0,3.13-.43,3.69-1.91h4.01c-.73,3.03-3.38,5.11-7.76,5.11-5.25,0-8.47-3.15-8.47-8.62ZM72.66,18.38c-.02-2.37-1.62-4.1-3.98-4.1s-4.1,1.88-4.23,4.1h8.2Z"/>
          <path class="cls-2" d="M18.23,14.66c-1.44,0-2.61,1.16-2.61,2.6,0,1.44,1.16,2.61,2.6,2.61,1.44,0,2.61-1.16,2.61-2.6,0,0,0,0,0,0h0c0-1.44-1.16-2.6-2.6-2.61,0,0,0,0,0,0Z"/>
          <path class="cls-2" d="M33.68,14.66c-1.44,0-2.61,1.16-2.61,2.6s1.16,2.61,2.6,2.61c1.44,0,2.61-1.16,2.61-2.6,0,0,0,0,0,0h0c0-1.44-1.16-2.6-2.6-2.61,0,0,0,0,0,0Z"/>
          <path class="cls-2" d="M2.61,14.66c-1.44,0-2.61,1.17-2.61,2.61s1.17,2.61,2.61,2.61,2.61-1.17,2.61-2.61h0c0-1.44-1.17-2.61-2.61-2.61Z"/>
          <path class="cls-2" d="M15.99,31.93h0v-7.67h0c-.05-1.19.87-2.18,2.06-2.23s2.18.87,2.23,2.06c0,.06,0,.12,0,.17h0v7.67h0v.05c.05,1.19-.87,2.18-2.06,2.23s-2.18-.87-2.23-2.06c0-.06,0-.12,0-.17v-.05Z"/>
          <path class="cls-2" d="M23.76,28h0V6.53h0c.05-1.19,1.05-2.11,2.23-2.06,1.12.05,2.01.94,2.06,2.06h0v21.48h0v.05c.05,1.19-.87,2.18-2.06,2.23-1.19.05-2.18-.87-2.23-2.06,0-.06,0-.12,0-.17v-.05Z"/>
          <path class="cls-2" d="M8.23,28h0V6.53c0-1.19.96-2.15,2.15-2.15s2.15.96,2.15,2.15v21.48h0v.05c0,1.19-.96,2.15-2.15,2.15s-2.15-.96-2.15-2.15v-.05Z"/>
          <path class="cls-2" d="M15.99,9.91h0V2.23h0C15.94,1.05,16.87.05,18.05,0s2.18.87,2.23,2.06c0,.06,0,.12,0,.17h0v7.67h0v.05c.05,1.19-.87,2.18-2.06,2.23s-2.18-.87-2.23-2.06c0-.06,0-.12,0-.17v-.05Z"/>
        </g>
      </g>
      <g>
        <path class="cls-1" d="M283.6,28.69l8.15-23.15h5.18l8.16,23.15h-4.48l-1.92-5.71h-8.7l-1.91,5.71h-4.48ZM297.56,19.61l-3.13-9.33h-.18l-3.13,9.33h6.44Z"/>
        <path class="cls-1" d="M311.56,28.69h-4.19V5.54h4.19v23.15Z"/>
      </g>
    </g>
  </g>
</svg>